<svg viewBox="0 0 600 600" xmlns="http://www.w3.org/2000/svg">
<rect width="100%" height="100%" fill="#F6F2EF"/>
<g><circle cx="150" cy="120" r="4" fill="#CC7A5B" opacity="0.6"/><circle cx="470" cy="180" r="3" fill="#CC7A5B" opacity="0.6"/>
    <g transform="translate(300,300) scale(1.6)">
      <path d="M0,0 C -40,-70 -110,-70 -100,-10 C -95,30 -50,20 0,0 Z" fill="#2B4C8C" opacity="0.95"/>
      <path d="M0,0 C 40,-70 110,-70 100,-10 C 95,30 50,20 0,0 Z" fill="#2B4C8C" opacity="0.95"/>
      <path d="M0,10 C -30,40 -60,55 -55,80 C -50,100 -20,90 0,60 Z" fill="#2B4C8C" opacity="0.8"/>
      <path d="M0,10 C 30,40 60,55 55,80 C 50,100 20,90 0,60 Z" fill="#2B4C8C" opacity="0.8"/>
      <ellipse cx="0" cy="20" rx="7" ry="55" fill="#2F2A28"/>
      <line x1="0" y1="-30" x2="-18" y2="-55" stroke="#2F2A28" stroke-width="3"/>
      <line x1="0" y1="-30" x2="18" y2="-55" stroke="#2F2A28" stroke-width="3"/>
    </g>
</svg>