<svg viewBox="0 0 600 600" xmlns="http://www.w3.org/2000/svg">
<rect width="100%" height="100%" fill="#6D6789"/>
<g><rect x="0" y="0" width="600" height="380" fill="#6D6789"/><circle cx="470" cy="120" r="55" fill="#EFD9D7" opacity="0.85"/><rect x="0" y="360" width="600" height="240" fill="#3F5741"/><path d="M60,380 Q40,260 60,240 Q80,260 80,380 Z" fill="#2F4A34"/><path d="M140,380 Q120,220 140,200 Q160,220 160,380 Z" fill="#2F4A34"/><path d="M220,380 Q200,280 220,260 Q240,280 240,380 Z" fill="#2F4A34"/><path d="M320,380 Q300,230 320,210 Q340,230 340,380 Z" fill="#2F4A34"/><path d="M410,380 Q390,270 410,250 Q430,270 430,380 Z" fill="#2F4A34"/><path d="M500,380 Q480,240 500,220 Q520,240 520,380 Z" fill="#2F4A34"/>
</svg>