<svg viewBox="0 0 600 600" xmlns="http://www.w3.org/2000/svg">
<rect width="100%" height="100%" fill="#EAE3DA"/>
<g>
    <g transform="translate(300,300) scale(1.7)">
      <path d="M0,0 C -40,-70 -110,-70 -100,-10 C -95,30 -50,20 0,0 Z" fill="#6E5A46" opacity="0.95"/>
      <path d="M0,0 C 40,-70 110,-70 100,-10 C 95,30 50,20 0,0 Z" fill="#6E5A46" opacity="0.95"/>
      <path d="M0,10 C -30,40 -60,55 -55,80 C -50,100 -20,90 0,60 Z" fill="#6E5A46" opacity="0.8"/>
      <path d="M0,10 C 30,40 60,55 55,80 C 50,100 20,90 0,60 Z" fill="#6E5A46" opacity="0.8"/>
      <ellipse cx="0" cy="20" rx="7" ry="55" fill="#2F2A28"/>
      <line x1="0" y1="-30" x2="-18" y2="-55" stroke="#2F2A28" stroke-width="3"/>
      <line x1="0" y1="-30" x2="18" y2="-55" stroke="#2F2A28" stroke-width="3"/>
    </g><circle cx="255" cy="270" r="10" fill="#EFD9D7" opacity="0.8"/><circle cx="345" cy="270" r="10" fill="#EFD9D7" opacity="0.8"/>
</svg>