<svg viewBox="0 0 600 600" xmlns="http://www.w3.org/2000/svg">
<rect width="100%" height="100%" fill="#F6F2EF"/>
<g><line x1="300" y1="330" x2="300" y2="560" stroke="#6E8B5C" stroke-width="7"/><ellipse cx="419.9" cy="265.4" rx="50.4" ry="26.4" fill="#EFD9D7" transform="rotate(2.6 419.9 265.4)" opacity="0.92"/><ellipse cx="405.0" cy="318.0" rx="50.4" ry="26.4" fill="#EFD9D7" transform="rotate(28.9 405.0 318.0)" opacity="0.92"/><ellipse cx="365.8" cy="360.3" rx="50.4" ry="26.4" fill="#EFD9D7" transform="rotate(56.7 365.8 360.3)" opacity="0.92"/><ellipse cx="321.2" cy="378.1" rx="50.4" ry="26.4" fill="#EFD9D7" transform="rotate(79.8 321.2 378.1)" opacity="0.92"/><ellipse cx="267.4" cy="375.5" rx="50.4" ry="26.4" fill="#EFD9D7" transform="rotate(105.8 267.4 375.5)" opacity="0.92"/><ellipse cx="219.8" cy="349.3" rx="50.4" ry="26.4" fill="#EFD9D7" transform="rotate(131.9 219.8 349.3)" opacity="0.92"/><ellipse cx="190.9" cy="310.1" rx="50.4" ry="26.4" fill="#EFD9D7" transform="rotate(155.3 190.9 310.1)" opacity="0.92"/><ellipse cx="180.2" cy="253.9" rx="50.4" ry="26.4" fill="#EFD9D7" transform="rotate(182.9 180.2 253.9)" opacity="0.92"/><ellipse cx="195.4" cy="201.2" rx="50.4" ry="26.4" fill="#EFD9D7" transform="rotate(209.3 195.4 201.2)" opacity="0.92"/><ellipse cx="232.8" cy="160.5" rx="50.4" ry="26.4" fill="#EFD9D7" transform="rotate(236.0 232.8 160.5)" opacity="0.92"/><ellipse cx="274.4" cy="142.8" rx="50.4" ry="26.4" fill="#EFD9D7" transform="rotate(257.7 274.4 142.8)" opacity="0.92"/><ellipse cx="330.2" cy="143.9" rx="50.4" ry="26.4" fill="#EFD9D7" transform="rotate(284.6 330.2 143.9)" opacity="0.92"/><ellipse cx="375.7" cy="166.9" rx="50.4" ry="26.4" fill="#EFD9D7" transform="rotate(309.1 375.7 166.9)" opacity="0.92"/><ellipse cx="412.0" cy="216.8" rx="50.4" ry="26.4" fill="#EFD9D7" transform="rotate(338.9 412.0 216.8)" opacity="0.92"/><circle cx="300" cy="260" r="50.4" fill="#CC7A5B"/></g>
</svg>