<svg viewBox="0 0 600 600" xmlns="http://www.w3.org/2000/svg">
<rect width="100%" height="100%" fill="#F6F2EF"/>
<g fill="none" stroke="#4A433D" stroke-width="2"><path d="M275,250 Q263.5,246.5 244,211" opacity="0.5"/><path d="M433,225 Q442.0,228.5 443,200" opacity="0.5"/><path d="M84,479 Q50.5,499.0 55,503" opacity="0.5"/><path d="M159,156 Q165.0,142.0 191,136" opacity="0.5"/><path d="M415,433 Q407.5,427.0 434,447" opacity="0.5"/><path d="M481,380 Q451.0,370.5 425,375" opacity="0.5"/><path d="M117,451 Q120.0,455.5 103,484" opacity="0.5"/><path d="M364,423 Q321.0,389.5 306,378" opacity="0.5"/><path d="M432,171 Q405.0,152.0 378,145" opacity="0.5"/><path d="M397,93 Q396.5,106.5 414,106" opacity="0.5"/><path d="M487,513 Q465.5,491.0 434,491" opacity="0.5"/><path d="M134,421 Q90.5,428.0 85,413" opacity="0.5"/><path d="M520,282 Q489.5,241.0 489,224" opacity="0.5"/><path d="M119,314 Q142.5,323.5 152,305" opacity="0.5"/><path d="M461,223 Q445.5,203.5 470,166" opacity="0.5"/><path d="M244,170 Q206.5,173.5 201,213" opacity="0.5"/><path d="M448,429 Q459.5,441.5 499,478" opacity="0.5"/><path d="M291,415 Q291.0,450.5 321,450" opacity="0.5"/><path d="M350,294 Q344.0,313.0 366,342" opacity="0.5"/><path d="M192,303 Q194.0,325.5 178,336" opacity="0.5"/><path d="M483,310 Q455.0,336.5 433,335" opacity="0.5"/><path d="M188,431 Q177.5,418.5 159,406" opacity="0.5"/><path d="M493,398 Q485.0,426.0 481,438" opacity="0.5"/><path d="M454,121 Q427.5,119.0 421,131" opacity="0.5"/><path d="M95,195 Q71.5,179.0 58,195" opacity="0.5"/><path d="M201,360 Q196.0,380.5 213,379" opacity="0.5"/><path d="M248,142 Q219.5,144.5 217,131" opacity="0.5"/><path d="M386,458 Q416.5,451.0 417,422" opacity="0.5"/><path d="M281,262 Q310.0,230.0 335,236" opacity="0.5"/><path d="M171,381 Q175.0,431.0 201,441" opacity="0.5"/><path d="M158,342 Q152.0,359.5 164,365" opacity="0.5"/><path d="M452,481 Q438.5,471.5 401,426" opacity="0.5"/><path d="M435,260 Q423.5,272.5 402,287" opacity="0.5"/><path d="M225,157 Q215.5,200.5 198,206" opacity="0.5"/><path d="M198,504 Q172.5,548.5 153,555" opacity="0.5"/><path d="M380,293 Q380.0,283.5 358,284" opacity="0.5"/><path d="M129,336 Q137.0,338.0 129,352" opacity="0.5"/><path d="M327,173 Q352.5,157.0 382,173" opacity="0.5"/><path d="M206,333 Q222.0,367.0 206,393" opacity="0.5"/><path d="M107,392 Q143.5,388.5 152,423" opacity="0.5"/><circle cx="300" cy="300" r="90" opacity="0.6"/></g>
</svg>