<svg viewBox="0 0 600 600" xmlns="http://www.w3.org/2000/svg">
<rect width="100%" height="100%" fill="#F6F2EF"/>
<g><path d="M -20 500 Q 150 460 300 500 T 620 490 L 620 620 L -20 620 Z" fill="#E7DCCF" opacity="0.6"/><line x1="220" y1="284.0" x2="200" y2="580" stroke="#5B7A4D" stroke-width="6"/><ellipse cx="300.0" cy="261.1" rx="33.6" ry="17.6" fill="#E3A23D" transform="rotate(0.8 300.0 261.1)" opacity="0.92"/><ellipse cx="288.9" cy="300.7" rx="33.6" ry="17.6" fill="#E3A23D" transform="rotate(30.6 288.9 300.7)" opacity="0.92"/><ellipse cx="265.0" cy="326.2" rx="33.6" ry="17.6" fill="#E3A23D" transform="rotate(55.8 265.0 326.2)" opacity="0.92"/><ellipse cx="235.8" cy="338.4" rx="33.6" ry="17.6" fill="#E3A23D" transform="rotate(78.6 235.8 338.4)" opacity="0.92"/><ellipse cx="198.4" cy="337.0" rx="33.6" ry="17.6" fill="#E3A23D" transform="rotate(105.7 198.4 337.0)" opacity="0.92"/><ellipse cx="167.4" cy="320.2" rx="33.6" ry="17.6" fill="#E3A23D" transform="rotate(131.1 167.4 320.2)" opacity="0.92"/><ellipse cx="145.8" cy="289.9" rx="33.6" ry="17.6" fill="#E3A23D" transform="rotate(158.0 145.8 289.9)" opacity="0.92"/><ellipse cx="140.2" cy="253.7" rx="33.6" ry="17.6" fill="#E3A23D" transform="rotate(184.5 140.2 253.7)" opacity="0.92"/><ellipse cx="148.3" cy="224.6" rx="33.6" ry="17.6" fill="#E3A23D" transform="rotate(206.3 148.3 224.6)" opacity="0.92"/><ellipse cx="170.3" cy="197.3" rx="33.6" ry="17.6" fill="#E3A23D" transform="rotate(231.6 170.3 197.3)" opacity="0.92"/><ellipse cx="208.8" cy="180.8" rx="33.6" ry="17.6" fill="#E3A23D" transform="rotate(261.9 208.8 180.8)" opacity="0.92"/><ellipse cx="241.2" cy="182.8" rx="33.6" ry="17.6" fill="#E3A23D" transform="rotate(285.3 241.2 182.8)" opacity="0.92"/><ellipse cx="274.5" cy="201.4" rx="33.6" ry="17.6" fill="#E3A23D" transform="rotate(312.9 274.5 201.4)" opacity="0.92"/><ellipse cx="292.1" cy="225.3" rx="33.6" ry="17.6" fill="#E3A23D" transform="rotate(334.3 292.1 225.3)" opacity="0.92"/><circle cx="220" cy="260" r="33.6" fill="#8A5A2B"/><line x1="360" y1="228.5" x2="340" y2="580" stroke="#5B7A4D" stroke-width="6"/><ellipse cx="454.6" cy="209.1" rx="39.9" ry="20.9" fill="#E3A23D" transform="rotate(5.5 454.6 209.1)" opacity="0.92"/><ellipse cx="441.3" cy="249.1" rx="39.9" ry="20.9" fill="#E3A23D" transform="rotate(31.1 441.3 249.1)" opacity="0.92"/><ellipse cx="418.8" cy="274.6" rx="39.9" ry="20.9" fill="#E3A23D" transform="rotate(51.8 418.8 274.6)" opacity="0.92"/><ellipse cx="380.4" cy="292.8" rx="39.9" ry="20.9" fill="#E3A23D" transform="rotate(77.6 380.4 292.8)" opacity="0.92"/><ellipse cx="331.2" cy="290.5" rx="39.9" ry="20.9" fill="#E3A23D" transform="rotate(107.6 331.2 290.5)" opacity="0.92"/><ellipse cx="295.5" cy="269.7" rx="39.9" ry="20.9" fill="#E3A23D" transform="rotate(132.8 295.5 269.7)" opacity="0.92"/><ellipse cx="271.8" cy="235.4" rx="39.9" ry="20.9" fill="#E3A23D" transform="rotate(158.1 271.8 235.4)" opacity="0.92"/><ellipse cx="265.0" cy="197.1" rx="39.9" ry="20.9" fill="#E3A23D" transform="rotate(181.8 265.0 197.1)" opacity="0.92"/><ellipse cx="277.1" cy="153.7" rx="39.9" ry="20.9" fill="#E3A23D" transform="rotate(209.2 277.1 153.7)" opacity="0.92"/><ellipse cx="305.4" cy="122.3" rx="39.9" ry="20.9" fill="#E3A23D" transform="rotate(234.9 305.4 122.3)" opacity="0.92"/><ellipse cx="344.3" cy="106.3" rx="39.9" ry="20.9" fill="#E3A23D" transform="rotate(260.5 344.3 106.3)" opacity="0.92"/><ellipse cx="382.6" cy="107.7" rx="39.9" ry="20.9" fill="#E3A23D" transform="rotate(283.8 382.6 107.7)" opacity="0.92"/><ellipse cx="422.4" cy="128.3" rx="39.9" ry="20.9" fill="#E3A23D" transform="rotate(311.0 422.4 128.3)" opacity="0.92"/><ellipse cx="447.1" cy="162.2" rx="39.9" ry="20.9" fill="#E3A23D" transform="rotate(336.5 447.1 162.2)" opacity="0.92"/><circle cx="360" cy="200" r="39.9" fill="#8A5A2B"/><line x1="150" y1="169.5" x2="130" y2="580" stroke="#5B7A4D" stroke-width="6"/><ellipse cx="215.0" cy="151.5" rx="27.3" ry="14.3" fill="#E3A23D" transform="rotate(1.4 215.0 151.5)" opacity="0.92"/><ellipse cx="206.9" cy="181.3" rx="27.3" ry="14.3" fill="#E3A23D" transform="rotate(28.8 206.9 181.3)" opacity="0.92"/><ellipse cx="188.6" cy="202.3" rx="27.3" ry="14.3" fill="#E3A23D" transform="rotate(53.5 188.6 202.3)" opacity="0.92"/><ellipse cx="160.6" cy="214.1" rx="27.3" ry="14.3" fill="#E3A23D" transform="rotate(80.6 160.6 214.1)" opacity="0.92"/><ellipse cx="131.6" cy="212.3" rx="27.3" ry="14.3" fill="#E3A23D" transform="rotate(106.4 131.6 212.3)" opacity="0.92"/><ellipse cx="109.1" cy="200.6" rx="27.3" ry="14.3" fill="#E3A23D" transform="rotate(128.9 109.1 200.6)" opacity="0.92"/><ellipse cx="91.4" cy="178.1" rx="27.3" ry="14.3" fill="#E3A23D" transform="rotate(154.4 91.4 178.1)" opacity="0.92"/><ellipse cx="85.2" cy="144.6" rx="27.3" ry="14.3" fill="#E3A23D" transform="rotate(184.8 85.2 144.6)" opacity="0.92"/><ellipse cx="92.2" cy="120.3" rx="27.3" ry="14.3" fill="#E3A23D" transform="rotate(207.2 92.2 120.3)" opacity="0.92"/><ellipse cx="110.7" cy="98.2" rx="27.3" ry="14.3" fill="#E3A23D" transform="rotate(232.8 110.7 98.2)" opacity="0.92"/><ellipse cx="141.9" cy="85.5" rx="27.3" ry="14.3" fill="#E3A23D" transform="rotate(262.8 141.9 85.5)" opacity="0.92"/><ellipse cx="167.4" cy="87.4" rx="27.3" ry="14.3" fill="#E3A23D" transform="rotate(285.6 167.4 87.4)" opacity="0.92"/><ellipse cx="194.6" cy="102.7" rx="27.3" ry="14.3" fill="#E3A23D" transform="rotate(313.4 194.6 102.7)" opacity="0.92"/><ellipse cx="209.8" cy="124.6" rx="27.3" ry="14.3" fill="#E3A23D" transform="rotate(337.0 209.8 124.6)" opacity="0.92"/><circle cx="150" cy="150" r="27.3" fill="#8A5A2B"/><line x1="430" y1="361.0" x2="410" y2="580" stroke="#5B7A4D" stroke-width="6"/><ellipse cx="500.0" cy="341.7" rx="29.4" ry="15.4" fill="#E3A23D" transform="rotate(1.4 500.0 341.7)" opacity="0.92"/><ellipse cx="492.8" cy="371.0" rx="29.4" ry="15.4" fill="#E3A23D" transform="rotate(26.3 492.8 371.0)" opacity="0.92"/><ellipse cx="471.4" cy="396.4" rx="29.4" ry="15.4" fill="#E3A23D" transform="rotate(53.7 471.4 396.4)" opacity="0.92"/><ellipse cx="444.5" cy="408.5" rx="29.4" ry="15.4" fill="#E3A23D" transform="rotate(78.0 444.5 408.5)" opacity="0.92"/><ellipse cx="414.0" cy="408.1" rx="29.4" ry="15.4" fill="#E3A23D" transform="rotate(103.2 414.0 408.1)" opacity="0.92"/><ellipse cx="384.2" cy="392.9" rx="29.4" ry="15.4" fill="#E3A23D" transform="rotate(130.9 384.2 392.9)" opacity="0.92"/><ellipse cx="364.4" cy="364.5" rx="29.4" ry="15.4" fill="#E3A23D" transform="rotate(159.5 364.4 364.5)" opacity="0.92"/><ellipse cx="360.2" cy="334.4" rx="29.4" ry="15.4" fill="#E3A23D" transform="rotate(184.6 360.2 334.4)" opacity="0.92"/><ellipse cx="369.4" cy="304.9" rx="29.4" ry="15.4" fill="#E3A23D" transform="rotate(210.1 369.4 304.9)" opacity="0.92"/><ellipse cx="387.6" cy="284.3" rx="29.4" ry="15.4" fill="#E3A23D" transform="rotate(232.7 387.6 284.3)" opacity="0.92"/><ellipse cx="418.1" cy="271.0" rx="29.4" ry="15.4" fill="#E3A23D" transform="rotate(260.2 418.1 271.0)" opacity="0.92"/><ellipse cx="447.5" cy="272.2" rx="29.4" ry="15.4" fill="#E3A23D" transform="rotate(284.4 447.5 272.2)" opacity="0.92"/><ellipse cx="474.6" cy="286.0" rx="29.4" ry="15.4" fill="#E3A23D" transform="rotate(309.6 474.6 286.0)" opacity="0.92"/><ellipse cx="493.4" cy="310.3" rx="29.4" ry="15.4" fill="#E3A23D" transform="rotate(334.9 493.4 310.3)" opacity="0.92"/><circle cx="430" cy="340" r="29.4" fill="#8A5A2B"/></g>
</svg>