<svg viewBox="0 0 600 600" xmlns="http://www.w3.org/2000/svg">
<rect width="100%" height="100%" fill="#F6F2EF"/>
<g><ellipse cx="388.0" cy="173.8" rx="23.1" ry="12.1" fill="#EFD9D7" transform="rotate(0.8 388.0 173.8)" opacity="0.92"/><ellipse cx="381.4" cy="199.1" rx="23.1" ry="12.1" fill="#EFD9D7" transform="rotate(28.3 381.4 199.1)" opacity="0.92"/><ellipse cx="363.9" cy="218.5" rx="23.1" ry="12.1" fill="#EFD9D7" transform="rotate(55.8 363.9 218.5)" opacity="0.92"/><ellipse cx="341.4" cy="227.4" rx="23.1" ry="12.1" fill="#EFD9D7" transform="rotate(81.2 341.4 227.4)" opacity="0.92"/><ellipse cx="316.9" cy="225.6" rx="23.1" ry="12.1" fill="#EFD9D7" transform="rotate(107.1 316.9 225.6)" opacity="0.92"/><ellipse cx="296.9" cy="214.5" rx="23.1" ry="12.1" fill="#EFD9D7" transform="rotate(131.1 296.9 214.5)" opacity="0.92"/><ellipse cx="281.7" cy="192.8" rx="23.1" ry="12.1" fill="#EFD9D7" transform="rotate(158.9 281.7 192.8)" opacity="0.92"/><ellipse cx="278.1" cy="170.1" rx="23.1" ry="12.1" fill="#EFD9D7" transform="rotate(183.1 278.1 170.1)" opacity="0.92"/><ellipse cx="283.6" cy="148.7" rx="23.1" ry="12.1" fill="#EFD9D7" transform="rotate(206.2 283.6 148.7)" opacity="0.92"/><ellipse cx="300.7" cy="128.5" rx="23.1" ry="12.1" fill="#EFD9D7" transform="rotate(234.0 300.7 128.5)" opacity="0.92"/><ellipse cx="321.0" cy="119.3" rx="23.1" ry="12.1" fill="#EFD9D7" transform="rotate(257.4 321.0 119.3)" opacity="0.92"/><ellipse cx="350.2" cy="120.8" rx="23.1" ry="12.1" fill="#EFD9D7" transform="rotate(288.2 350.2 120.8)" opacity="0.92"/><ellipse cx="371.2" cy="133.4" rx="23.1" ry="12.1" fill="#EFD9D7" transform="rotate(314.0 371.2 133.4)" opacity="0.92"/><ellipse cx="383.3" cy="150.8" rx="23.1" ry="12.1" fill="#EFD9D7" transform="rotate(336.2 383.3 150.8)" opacity="0.92"/><circle cx="333" cy="173" r="23.1" fill="#8A5A2B"/><ellipse cx="272.9" cy="511.0" rx="14.7" ry="7.7" fill="#EFD9D7" transform="rotate(3.3 272.9 511.0)" opacity="0.92"/><ellipse cx="269.2" cy="524.8" rx="14.7" ry="7.7" fill="#EFD9D7" transform="rotate(26.8 269.2 524.8)" opacity="0.92"/><ellipse cx="257.1" cy="538.3" rx="14.7" ry="7.7" fill="#EFD9D7" transform="rotate(57.0 257.1 538.3)" opacity="0.92"/><ellipse cx="242.6" cy="543.7" rx="14.7" ry="7.7" fill="#EFD9D7" transform="rotate(82.4 242.6 543.7)" opacity="0.92"/><ellipse cx="228.6" cy="542.7" rx="14.7" ry="7.7" fill="#EFD9D7" transform="rotate(105.5 228.6 542.7)" opacity="0.92"/><ellipse cx="214.4" cy="534.9" rx="14.7" ry="7.7" fill="#EFD9D7" transform="rotate(132.4 214.4 534.9)" opacity="0.92"/><ellipse cx="206.1" cy="523.5" rx="14.7" ry="7.7" fill="#EFD9D7" transform="rotate(155.5 206.1 523.5)" opacity="0.92"/><ellipse cx="203.0" cy="508.2" rx="14.7" ry="7.7" fill="#EFD9D7" transform="rotate(181.3 203.0 508.2)" opacity="0.92"/><ellipse cx="206.9" cy="492.9" rx="14.7" ry="7.7" fill="#EFD9D7" transform="rotate(207.4 206.9 492.9)" opacity="0.92"/><ellipse cx="218.1" cy="480.2" rx="14.7" ry="7.7" fill="#EFD9D7" transform="rotate(235.4 218.1 480.2)" opacity="0.92"/><ellipse cx="230.9" cy="474.7" rx="14.7" ry="7.7" fill="#EFD9D7" transform="rotate(258.4 230.9 474.7)" opacity="0.92"/><ellipse cx="249.1" cy="475.8" rx="14.7" ry="7.7" fill="#EFD9D7" transform="rotate(288.4 249.1 475.8)" opacity="0.92"/><ellipse cx="260.0" cy="481.8" rx="14.7" ry="7.7" fill="#EFD9D7" transform="rotate(309.0 260.0 481.8)" opacity="0.92"/><ellipse cx="269.8" cy="494.4" rx="14.7" ry="7.7" fill="#EFD9D7" transform="rotate(335.4 269.8 494.4)" opacity="0.92"/><circle cx="238" cy="509" r="14.7" fill="#8A5A2B"/><ellipse cx="161.0" cy="307.5" rx="15.1" ry="7.9" fill="#E3A23D" transform="rotate(0.8 161.0 307.5)" opacity="0.92"/><ellipse cx="156.4" cy="324.6" rx="15.1" ry="7.9" fill="#E3A23D" transform="rotate(29.2 156.4 324.6)" opacity="0.92"/><ellipse cx="147.0" cy="335.5" rx="15.1" ry="7.9" fill="#E3A23D" transform="rotate(52.4 147.0 335.5)" opacity="0.92"/><ellipse cx="130.5" cy="342.6" rx="15.1" ry="7.9" fill="#E3A23D" transform="rotate(81.2 130.5 342.6)" opacity="0.92"/><ellipse cx="114.9" cy="341.5" rx="15.1" ry="7.9" fill="#E3A23D" transform="rotate(106.3 114.9 341.5)" opacity="0.92"/><ellipse cx="101.5" cy="334.3" rx="15.1" ry="7.9" fill="#E3A23D" transform="rotate(130.8 101.5 334.3)" opacity="0.92"/><ellipse cx="91.7" cy="320.6" rx="15.1" ry="7.9" fill="#E3A23D" transform="rotate(157.8 91.7 320.6)" opacity="0.92"/><ellipse cx="89.1" cy="305.0" rx="15.1" ry="7.9" fill="#E3A23D" transform="rotate(183.2 89.1 305.0)" opacity="0.92"/><ellipse cx="92.6" cy="291.2" rx="15.1" ry="7.9" fill="#E3A23D" transform="rotate(206.0 92.6 291.2)" opacity="0.92"/><ellipse cx="104.1" cy="277.7" rx="15.1" ry="7.9" fill="#E3A23D" transform="rotate(234.5 104.1 277.7)" opacity="0.92"/><ellipse cx="119.2" cy="271.5" rx="15.1" ry="7.9" fill="#E3A23D" transform="rotate(260.7 119.2 271.5)" opacity="0.92"/><ellipse cx="134.8" cy="272.4" rx="15.1" ry="7.9" fill="#E3A23D" transform="rotate(285.8 134.8 272.4)" opacity="0.92"/><ellipse cx="149.8" cy="280.9" rx="15.1" ry="7.9" fill="#E3A23D" transform="rotate(313.6 149.8 280.9)" opacity="0.92"/><ellipse cx="158.5" cy="293.8" rx="15.1" ry="7.9" fill="#E3A23D" transform="rotate(338.5 158.5 293.8)" opacity="0.92"/><circle cx="125" cy="307" r="15.1" fill="#8A5A2B"/><ellipse cx="318.8" cy="310.5" rx="19.3" ry="10.1" fill="#EFD9D7" transform="rotate(5.6 318.8 310.5)" opacity="0.92"/><ellipse cx="313.5" cy="327.8" rx="19.3" ry="10.1" fill="#EFD9D7" transform="rotate(28.3 313.5 327.8)" opacity="0.92"/><ellipse cx="299.0" cy="343.9" rx="19.3" ry="10.1" fill="#EFD9D7" transform="rotate(55.5 299.0 343.9)" opacity="0.92"/><ellipse cx="279.9" cy="351.5" rx="19.3" ry="10.1" fill="#EFD9D7" transform="rotate(81.4 279.9 351.5)" opacity="0.92"/><ellipse cx="261.8" cy="350.6" rx="19.3" ry="10.1" fill="#EFD9D7" transform="rotate(104.1 261.8 350.6)" opacity="0.92"/><ellipse cx="244.0" cy="341.7" rx="19.3" ry="10.1" fill="#EFD9D7" transform="rotate(129.0 244.0 341.7)" opacity="0.92"/><ellipse cx="230.4" cy="323.4" rx="19.3" ry="10.1" fill="#EFD9D7" transform="rotate(157.7 230.4 323.4)" opacity="0.92"/><ellipse cx="227.0" cy="305.4" rx="19.3" ry="10.1" fill="#EFD9D7" transform="rotate(180.7 227.0 305.4)" opacity="0.92"/><ellipse cx="232.3" cy="284.5" rx="19.3" ry="10.1" fill="#EFD9D7" transform="rotate(207.9 232.3 284.5)" opacity="0.92"/><ellipse cx="247.6" cy="267.6" rx="19.3" ry="10.1" fill="#EFD9D7" transform="rotate(236.5 247.6 267.6)" opacity="0.92"/><ellipse cx="266.7" cy="260.4" rx="19.3" ry="10.1" fill="#EFD9D7" transform="rotate(262.1 266.7 260.4)" opacity="0.92"/><ellipse cx="283.8" cy="261.3" rx="19.3" ry="10.1" fill="#EFD9D7" transform="rotate(283.5 283.8 261.3)" opacity="0.92"/><ellipse cx="302.0" cy="270.3" rx="19.3" ry="10.1" fill="#EFD9D7" transform="rotate(309.0 302.0 270.3)" opacity="0.92"/><ellipse cx="314.9" cy="287.0" rx="19.3" ry="10.1" fill="#EFD9D7" transform="rotate(335.6 314.9 287.0)" opacity="0.92"/><circle cx="273" cy="306" r="19.3" fill="#8A5A2B"/><ellipse cx="539.8" cy="95.5" rx="15.5" ry="8.1" fill="#CC7A5B" transform="rotate(5.5 539.8 95.5)" opacity="0.92"/><ellipse cx="534.8" cy="110.9" rx="15.5" ry="8.1" fill="#CC7A5B" transform="rotate(30.7 534.8 110.9)" opacity="0.92"/><ellipse cx="523.9" cy="122.5" rx="15.5" ry="8.1" fill="#CC7A5B" transform="rotate(55.6 523.9 122.5)" opacity="0.92"/><ellipse cx="510.4" cy="128.3" rx="15.5" ry="8.1" fill="#CC7A5B" transform="rotate(78.4 510.4 128.3)" opacity="0.92"/><ellipse cx="493.6" cy="127.8" rx="15.5" ry="8.1" fill="#CC7A5B" transform="rotate(104.8 493.6 127.8)" opacity="0.92"/><ellipse cx="477.9" cy="119.2" rx="15.5" ry="8.1" fill="#CC7A5B" transform="rotate(132.7 477.9 119.2)" opacity="0.92"/><ellipse cx="468.5" cy="105.3" rx="15.5" ry="8.1" fill="#CC7A5B" transform="rotate(158.9 468.5 105.3)" opacity="0.92"/><ellipse cx="466.0" cy="91.9" rx="15.5" ry="8.1" fill="#CC7A5B" transform="rotate(180.1 466.0 91.9)" opacity="0.92"/><ellipse cx="469.9" cy="75.4" rx="15.5" ry="8.1" fill="#CC7A5B" transform="rotate(206.7 469.9 75.4)" opacity="0.92"/><ellipse cx="482.6" cy="61.1" rx="15.5" ry="8.1" fill="#CC7A5B" transform="rotate(236.6 482.6 61.1)" opacity="0.92"/><ellipse cx="495.2" cy="55.8" rx="15.5" ry="8.1" fill="#CC7A5B" transform="rotate(257.8 495.2 55.8)" opacity="0.92"/><ellipse cx="513.6" cy="56.5" rx="15.5" ry="8.1" fill="#CC7A5B" transform="rotate(286.6 513.6 56.5)" opacity="0.92"/><ellipse cx="527.0" cy="63.8" rx="15.5" ry="8.1" fill="#CC7A5B" transform="rotate(310.5 527.0 63.8)" opacity="0.92"/><ellipse cx="537.3" cy="78.1" rx="15.5" ry="8.1" fill="#CC7A5B" transform="rotate(338.0 537.3 78.1)" opacity="0.92"/><circle cx="503" cy="92" r="15.5" fill="#8A5A2B"/><ellipse cx="224.8" cy="380.7" rx="17.6" ry="9.2" fill="#E3A23D" transform="rotate(5.0 224.8 380.7)" opacity="0.92"/><ellipse cx="220.2" cy="396.5" rx="17.6" ry="9.2" fill="#E3A23D" transform="rotate(27.7 220.2 396.5)" opacity="0.92"/><ellipse cx="206.5" cy="411.8" rx="17.6" ry="9.2" fill="#E3A23D" transform="rotate(56.0 206.5 411.8)" opacity="0.92"/><ellipse cx="188.4" cy="418.6" rx="17.6" ry="9.2" fill="#E3A23D" transform="rotate(82.6 188.4 418.6)" opacity="0.92"/><ellipse cx="172.4" cy="417.6" rx="17.6" ry="9.2" fill="#E3A23D" transform="rotate(104.6 172.4 417.6)" opacity="0.92"/><ellipse cx="154.4" cy="407.7" rx="17.6" ry="9.2" fill="#E3A23D" transform="rotate(133.0 154.4 407.7)" opacity="0.92"/><ellipse cx="144.6" cy="393.9" rx="17.6" ry="9.2" fill="#E3A23D" transform="rotate(156.2 144.6 393.9)" opacity="0.92"/><ellipse cx="141.0" cy="376.3" rx="17.6" ry="9.2" fill="#E3A23D" transform="rotate(180.9 141.0 376.3)" opacity="0.92"/><ellipse cx="145.8" cy="357.5" rx="17.6" ry="9.2" fill="#E3A23D" transform="rotate(207.7 145.8 357.5)" opacity="0.92"/><ellipse cx="159.4" cy="342.3" rx="17.6" ry="9.2" fill="#E3A23D" transform="rotate(235.7 159.4 342.3)" opacity="0.92"/><ellipse cx="174.3" cy="335.9" rx="17.6" ry="9.2" fill="#E3A23D" transform="rotate(258.0 174.3 335.9)" opacity="0.92"/><ellipse cx="195.0" cy="336.8" rx="17.6" ry="9.2" fill="#E3A23D" transform="rotate(286.6 195.0 336.8)" opacity="0.92"/><ellipse cx="210.3" cy="345.1" rx="17.6" ry="9.2" fill="#E3A23D" transform="rotate(310.6 210.3 345.1)" opacity="0.92"/><ellipse cx="221.1" cy="359.4" rx="17.6" ry="9.2" fill="#E3A23D" transform="rotate(335.3 221.1 359.4)" opacity="0.92"/><circle cx="183" cy="377" r="17.6" fill="#8A5A2B"/><ellipse cx="343.9" cy="398.1" rx="18.5" ry="9.7" fill="#8CA07A" transform="rotate(4.1 343.9 398.1)" opacity="0.92"/><ellipse cx="337.8" cy="417.6" rx="18.5" ry="9.7" fill="#8CA07A" transform="rotate(30.9 337.8 417.6)" opacity="0.92"/><ellipse cx="327.4" cy="429.4" rx="18.5" ry="9.7" fill="#8CA07A" transform="rotate(51.5 327.4 429.4)" opacity="0.92"/><ellipse cx="305.7" cy="438.6" rx="18.5" ry="9.7" fill="#8CA07A" transform="rotate(82.5 305.7 438.6)" opacity="0.92"/><ellipse cx="286.7" cy="436.9" rx="18.5" ry="9.7" fill="#8CA07A" transform="rotate(107.6 286.7 436.9)" opacity="0.92"/><ellipse cx="272.4" cy="429.2" rx="18.5" ry="9.7" fill="#8CA07A" transform="rotate(128.9 272.4 429.2)" opacity="0.92"/><ellipse cx="258.9" cy="410.8" rx="18.5" ry="9.7" fill="#8CA07A" transform="rotate(158.9 258.9 410.8)" opacity="0.92"/><ellipse cx="256.1" cy="391.5" rx="18.5" ry="9.7" fill="#8CA07A" transform="rotate(184.6 256.1 391.5)" opacity="0.92"/><ellipse cx="260.7" cy="375.2" rx="18.5" ry="9.7" fill="#8CA07A" transform="rotate(206.8 260.7 375.2)" opacity="0.92"/><ellipse cx="276.0" cy="358.1" rx="18.5" ry="9.7" fill="#8CA07A" transform="rotate(237.0 276.0 358.1)" opacity="0.92"/><ellipse cx="291.8" cy="351.8" rx="18.5" ry="9.7" fill="#8CA07A" transform="rotate(259.2 291.8 351.8)" opacity="0.92"/><ellipse cx="311.7" cy="352.6" rx="18.5" ry="9.7" fill="#8CA07A" transform="rotate(285.4 311.7 352.6)" opacity="0.92"/><ellipse cx="329.6" cy="362.5" rx="18.5" ry="9.7" fill="#8CA07A" transform="rotate(312.3 329.6 362.5)" opacity="0.92"/><ellipse cx="340.9" cy="378.7" rx="18.5" ry="9.7" fill="#8CA07A" transform="rotate(338.2 340.9 378.7)" opacity="0.92"/><circle cx="300" cy="395" r="18.5" fill="#8A5A2B"/><ellipse cx="514.0" cy="320.3" rx="21.8" ry="11.4" fill="#E3A23D" transform="rotate(1.4 514.0 320.3)" opacity="0.92"/><ellipse cx="507.5" cy="344.2" rx="21.8" ry="11.4" fill="#E3A23D" transform="rotate(29.0 507.5 344.2)" opacity="0.92"/><ellipse cx="490.3" cy="362.6" rx="21.8" ry="11.4" fill="#E3A23D" transform="rotate(57.0 490.3 362.6)" opacity="0.92"/><ellipse cx="470.2" cy="370.3" rx="21.8" ry="11.4" fill="#E3A23D" transform="rotate(80.9 470.2 370.3)" opacity="0.92"/><ellipse cx="448.0" cy="369.1" rx="21.8" ry="11.4" fill="#E3A23D" transform="rotate(105.6 448.0 369.1)" opacity="0.92"/><ellipse cx="428.3" cy="358.6" rx="21.8" ry="11.4" fill="#E3A23D" transform="rotate(130.3 428.3 358.6)" opacity="0.92"/><ellipse cx="414.8" cy="340.9" rx="21.8" ry="11.4" fill="#E3A23D" transform="rotate(155.1 414.8 340.9)" opacity="0.92"/><ellipse cx="410.3" cy="313.8" rx="21.8" ry="11.4" fill="#E3A23D" transform="rotate(185.7 410.3 313.8)" opacity="0.92"/><ellipse cx="417.0" cy="293.0" rx="21.8" ry="11.4" fill="#E3A23D" transform="rotate(210.0 417.0 293.0)" opacity="0.92"/><ellipse cx="430.6" cy="277.5" rx="21.8" ry="11.4" fill="#E3A23D" transform="rotate(232.9 430.6 277.5)" opacity="0.92"/><ellipse cx="453.5" cy="267.7" rx="21.8" ry="11.4" fill="#E3A23D" transform="rotate(260.5 453.5 267.7)" opacity="0.92"/><ellipse cx="477.1" cy="269.3" rx="21.8" ry="11.4" fill="#E3A23D" transform="rotate(286.9 477.1 269.3)" opacity="0.92"/><ellipse cx="498.0" cy="281.4" rx="21.8" ry="11.4" fill="#E3A23D" transform="rotate(313.8 498.0 281.4)" opacity="0.92"/><ellipse cx="509.5" cy="297.8" rx="21.8" ry="11.4" fill="#E3A23D" transform="rotate(335.9 509.5 297.8)" opacity="0.92"/><circle cx="462" cy="319" r="21.8" fill="#8A5A2B"/><ellipse cx="288.0" cy="177.6" rx="20.2" ry="10.6" fill="#EFD9D7" transform="rotate(0.7 288.0 177.6)" opacity="0.92"/><ellipse cx="281.4" cy="201.3" rx="20.2" ry="10.6" fill="#EFD9D7" transform="rotate(30.4 281.4 201.3)" opacity="0.92"/><ellipse cx="266.5" cy="217.0" rx="20.2" ry="10.6" fill="#EFD9D7" transform="rotate(56.5 266.5 217.0)" opacity="0.92"/><ellipse cx="248.9" cy="224.2" rx="20.2" ry="10.6" fill="#EFD9D7" transform="rotate(79.3 248.9 224.2)" opacity="0.92"/><ellipse cx="228.0" cy="223.5" rx="20.2" ry="10.6" fill="#EFD9D7" transform="rotate(104.4 228.0 223.5)" opacity="0.92"/><ellipse cx="209.3" cy="213.9" rx="20.2" ry="10.6" fill="#EFD9D7" transform="rotate(129.7 209.3 213.9)" opacity="0.92"/><ellipse cx="196.6" cy="197.5" rx="20.2" ry="10.6" fill="#EFD9D7" transform="rotate(154.7 196.6 197.5)" opacity="0.92"/><ellipse cx="192.0" cy="176.0" rx="20.2" ry="10.6" fill="#EFD9D7" transform="rotate(181.2 192.0 176.0)" opacity="0.92"/><ellipse cx="197.2" cy="155.3" rx="20.2" ry="10.6" fill="#EFD9D7" transform="rotate(206.9 197.2 155.3)" opacity="0.92"/><ellipse cx="213.4" cy="137.1" rx="20.2" ry="10.6" fill="#EFD9D7" transform="rotate(236.3 213.4 137.1)" opacity="0.92"/><ellipse cx="230.2" cy="130.0" rx="20.2" ry="10.6" fill="#EFD9D7" transform="rotate(258.2 230.2 130.0)" opacity="0.92"/><ellipse cx="251.6" cy="130.4" rx="20.2" ry="10.6" fill="#EFD9D7" transform="rotate(283.9 251.6 130.4)" opacity="0.92"/><ellipse cx="273.3" cy="142.4" rx="20.2" ry="10.6" fill="#EFD9D7" transform="rotate(313.9 273.3 142.4)" opacity="0.92"/><ellipse cx="285.0" cy="160.2" rx="20.2" ry="10.6" fill="#EFD9D7" transform="rotate(339.5 285.0 160.2)" opacity="0.92"/><circle cx="240" cy="177" r="20.2" fill="#8A5A2B"/>
</svg>